# This file uses centimeters as units for non-parametric coordinates.

mtllib COMPUTER_CHAIR_Seat.mtl
g default
v 0.000000 0.815000 0.510000
v 0.000000 0.815000 0.090000
v -0.049995 0.075047 0.579062
v -0.013396 0.102496 0.576500
v 0.000000 0.139992 0.573001
v -0.099990 0.102500 0.580000
v -0.013396 0.102496 0.023500
v -0.049995 0.075047 0.020938
v -0.099990 0.102500 0.020000
v 0.000000 0.139992 0.026999
v -0.200000 0.102500 0.552000
v -0.160000 0.102500 0.580000
v -0.180000 0.102500 0.576249
v -0.194641 0.102500 0.566000
v -0.103984 0.786614 0.486003
v -0.096839 0.800963 0.498134
v -0.081290 0.811275 0.506851
v -0.061026 0.815000 0.510000
v -0.104176 0.785246 0.115153
v -0.096933 0.800286 0.102439
v -0.081322 0.811098 0.093299
v -0.061026 0.815000 0.090000
v -0.200000 0.102500 0.048000
v -0.194641 0.102500 0.034000
v -0.180000 0.102500 0.023751
v -0.160000 0.102500 0.020000
v -0.020000 0.198229 0.525894
v -0.020000 0.198229 0.074106
v -0.020000 0.756763 0.126236
v -0.020000 0.756763 0.473764
vt 0.875000 0.024997
vt 0.875000 0.250000
vt 0.625000 0.024997
vt 0.507254 0.985516
vt 0.543510 -0.000000
vt 0.514511 0.971000
vt 0.875000 0.000000
vt 0.425000 0.000000
vt 0.472437 0.250000
vt 0.625000 0.500000
vt 0.138232 0.239560
vt 0.362500 0.000000
vt 0.359056 0.240040
vt 0.521738 -0.000000
vt 0.625000 0.250000
vt 0.500012 -0.000000
vt 0.625000 0.750000
vt 0.568038 0.752162
vt 0.500013 0.750000
vt 0.472436 0.500002
vt 0.625000 0.725003
vt 0.500013 1.000000
vt 0.425000 1.000000
vt 0.375000 0.987500
vt 0.375000 0.762500
vt 0.425000 0.750000
vt 0.137500 0.000000
vt 0.408333 0.995833
vt 0.404167 0.000000
vt 0.391667 0.991667
vt 0.383333 0.000000
vt 0.375000 0.250000
vt 0.375000 0.250000
vt 0.375000 0.250000
vt 0.290391 0.160937
vt 0.375000 0.432578
vt 0.375000 0.440634
vt 0.286658 0.157008
vt 0.140599 0.003262
vt 0.375000 0.755813
vt 0.143698 0.006525
vt 0.375000 0.749125
vt 0.625000 0.024997
vt 0.875000 0.024997
vt 0.875000 0.250000
vt 0.625000 0.250000
vn 1.000000 0.000000 0.000000
vn 1.000000 0.000000 0.000000
vn 1.000000 0.000000 0.000000
vn 1.000000 0.000000 0.000000
vn 0.941705 -0.336440 0.000000
vn 0.781564 -0.623826 0.000000
vn 0.781564 -0.623826 0.000000
vn 0.941705 -0.336440 0.000000
vn 0.600001 -0.799999 0.000000
vn 0.600001 -0.799999 0.000000
vn -0.481323 -0.876543 0.000000
vn -0.481323 -0.876543 0.000000
vn -0.481323 -0.876543 0.000000
vn -0.481323 -0.876543 0.000000
vn -0.990038 0.140203 0.012974
vn -0.921852 0.163261 0.351474
vn -0.783105 0.612383 0.108325
vn -0.988782 0.148564 0.015443
vn -0.563389 0.157778 0.810986
vn -0.369509 0.141411 0.918404
vn -0.301646 0.134493 0.943886
vn -0.563389 0.157778 0.810986
vn -0.016630 0.099127 0.994936
vn -0.007138 0.097787 0.995182
vn -0.041692 0.999130 -0.000046
vn -0.000001 1.000000 -0.000000
vn -0.000001 1.000000 -0.000000
vn -0.041480 0.999139 -0.000045
vn -0.988792 0.148509 -0.015369
vn -0.990035 0.140221 -0.012978
vn 0.016177 0.094457 0.995398
vn 0.016177 0.094457 0.995398
vn 0.016177 0.094457 0.995398
vn 0.016177 0.094457 0.995397
vn 0.016177 0.094457 0.995398
vn 0.016177 0.094457 -0.995397
vn 0.016177 0.094457 -0.995397
vn 0.016177 0.094457 -0.995397
vn -0.017321 0.099241 -0.994913
vn -0.007487 0.097848 -0.995173
vn 0.016177 0.094457 -0.995398
vn 0.016177 0.094457 -0.995397
vn 0.000000 -1.000000 0.000000
vn 0.000000 -1.000000 0.000000
vn 0.000000 -1.000000 0.000000
vn 0.000000 -1.000000 0.000000
vn 0.000000 -1.000000 0.000000
vn 0.000000 -1.000000 0.000000
vn 0.000000 -1.000000 0.000000
vn 0.000000 -1.000000 0.000000
vn 0.000000 -1.000000 0.000000
vn 0.000000 -1.000000 0.000000
vn -0.318112 0.948053 -0.000408
vn -0.316840 0.948479 -0.000406
vn -0.752152 0.428461 -0.500689
vn -0.182447 0.121188 -0.975718
vn -0.182447 0.121188 -0.975718
vn -0.760974 0.167996 -0.626655
vn -0.572345 0.158853 -0.804479
vn -0.572345 0.158853 -0.804479
vn 0.945781 0.324804 0.000000
vn 0.945781 0.324804 0.000000
vn 0.945781 0.324804 0.000000
vn 0.945781 0.324804 0.000000
vn 0.900808 -0.040352 0.432339
vn 0.900808 -0.040352 0.432339
vn 0.900808 -0.040352 0.432339
vn 0.900808 -0.040352 0.432339
vn 0.945782 -0.324803 0.000000
vn 0.945782 -0.324803 0.000000
vn 0.945782 -0.324803 0.000000
vn 0.945782 -0.324803 0.000000
vn 0.900808 -0.040352 -0.432339
vn 0.900808 -0.040352 -0.432339
vn 0.900808 -0.040352 -0.432339
vn 0.900808 -0.040352 -0.432339
s off
g pCube1
usemtl initialShadingGroup
f 27/43/1 28/44/2 29/45/3 30/46/4
s 1
f 5/3/5 4/5/6 7/7/7 10/1/8
f 4/6/6 3/4/9 8/18/10 7/17/7
s off
f 3/4/11 6/22/12 9/19/13 8/18/14
s 2
f 11/12/15 14/31/16 16/33/17 15/13/18
s 3
f 14/31/19 13/29/20 17/34/21 16/33/22
f 13/29/20 12/8/23 18/9/24 17/34/21
s 2
f 18/9/25 1/15/26 2/10/27 22/20/28
f 19/11/29 23/27/30 11/12/15 15/13/18
s 3
f 3/14/31 4/5/32 5/3/33 1/15/34 18/9/24 12/8/23 6/16/35
s 5
f 7/17/36 8/18/37 9/19/38 26/26/39 22/20/40 2/10/41 10/21/42
s off
f 9/19/43 6/22/44 12/23/45 13/28/46 14/30/47 11/24/48 23/25/49 24/40/50 25/42/51 26/26/52
s 2
f 17/34/53 18/9/25 22/20/28 21/37/54
f 15/13/18 16/33/17 20/35/55 19/11/29
f 16/32/17 17/34/53 21/37/54 20/36/55
s 5
f 21/37/56 22/20/40 26/26/39 25/42/57
s 2
f 19/11/29 20/35/55 24/39/58 23/27/30
f 20/35/55 21/38/59 25/41/60 24/39/58
s off
f 5/3/61 10/1/62 28/44/63 27/43/64
f 10/1/65 2/2/66 29/45/67 28/44/68
f 2/2/69 1/15/70 30/46/71 29/45/72
f 1/15/73 5/3/74 27/43/75 30/46/76
g default
v -0.062499 0.046698 0.580000
v -0.053349 0.064997 0.580000
v -0.050000 0.089995 0.580000
v -0.053349 0.064997 0.020000
v -0.062499 0.046698 0.020000
v -0.050000 0.089995 0.020000
v -0.083084 0.040000 0.558269
v -0.074007 0.041698 0.574147
v -0.063235 0.046303 0.580000
v -0.062586 0.140000 0.562380
v -0.053686 0.132628 0.574839
v -0.050000 0.114829 0.580000
v -0.062586 0.140000 0.037620
v -0.053686 0.132628 0.025161
v -0.050000 0.114829 0.020000
v -0.083084 0.040000 0.041731
v -0.073808 0.041806 0.025859
v -0.491522 0.046714 0.574759
v -0.518913 0.047043 0.563985
v -0.538971 0.047284 0.534472
v -0.546314 0.047372 0.494139
v -0.550000 0.065171 0.501974
v -0.542411 0.064877 0.540987
v -0.521676 0.064073 0.569547
v -0.493352 0.062975 0.580000
v -0.480884 0.040000 0.561869
v -0.509121 0.040000 0.551563
v -0.529829 0.040000 0.522919
v -0.537414 0.040000 0.483674
v -0.490122 0.132628 0.574839
v -0.518218 0.132628 0.564300
v -0.538786 0.132628 0.535505
v -0.546314 0.132628 0.496171
v -0.481222 0.140000 0.562380
v -0.537414 0.140000 0.483712
v -0.529886 0.140000 0.523046
v -0.509318 0.140000 0.551841
v -0.493338 0.114829 0.580000
v -0.521669 0.114829 0.569549
v -0.542409 0.114829 0.540997
v -0.550000 0.114829 0.501995
v -0.546314 0.132628 0.101840
v -0.538599 0.132628 0.063500
v -0.517520 0.132628 0.035434
v -0.488727 0.132628 0.025161
v -0.550000 0.114829 0.098669
v -0.542472 0.114829 0.059334
v -0.521904 0.114829 0.030540
v -0.493808 0.114829 0.020000
v -0.481222 0.140000 0.037620
v -0.509318 0.140000 0.048159
v -0.529886 0.140000 0.076954
v -0.537414 0.140000 0.116288
v -0.490108 0.046710 0.025244
v -0.518206 0.047041 0.035753
v -0.538782 0.047284 0.064544
v -0.546314 0.047372 0.103893
v -0.480884 0.040000 0.038131
v -0.537414 0.040000 0.116326
v -0.529829 0.040000 0.077081
v -0.509121 0.040000 0.048437
v -0.493352 0.063025 0.020000
v -0.521676 0.064098 0.030453
v -0.542411 0.064884 0.059012
v -0.550000 0.065171 0.098025
vt 0.628452 0.000000
vt 0.613261 0.984808
vt 0.875000 0.000000
vt 0.875000 0.124987
vt 0.612881 0.992404
vt 0.875000 0.187072
vt 0.612859 0.992852
vt 0.875000 0.250000
vt 0.338304 0.000000
vt 0.375000 0.285751
vt 0.381293 0.292986
vt 0.409405 0.257866
vt 0.409389 0.492134
vt 0.381293 0.457014
vt 0.375000 0.785808
vt 0.381293 0.793003
vt 0.409527 0.758094
vt 0.403536 0.250000
vt 0.403331 0.187072
vt 0.625000 0.250000
vt 0.403234 0.750000
vt 0.608458 0.759701
vt 0.403324 0.694531
vt 0.612501 0.750000
vt 0.159832 0.062928
vt 0.340176 0.187072
vt 0.620477 0.000000
vt 0.625000 0.124987
vt 0.625000 0.187072
vt 0.403514 0.055604
vt 0.625000 0.750000
vt 0.618773 0.751269
vt 0.403096 0.562928
vt 0.625000 0.625013
vt 0.402552 -0.000000
vt 0.612501 0.000000
vt 0.620007 0.000000
vt 0.612501 1.000000
vt 0.339221 0.250000
vt 0.160120 0.187072
vt 0.375000 0.465119
vt 0.404224 0.500000
vt 0.625000 0.562929
vt 0.625000 0.500000
vt 0.375000 0.963296
vt 0.340167 0.062928
vt 0.160816 0.000000
vt 0.618707 0.257866
vt 0.618707 0.492134
vt 0.608458 0.990299
vt 0.381293 0.956984
vt 0.402554 1.000000
vt 0.409558 0.991906
vt 0.159874 0.250000
vt 0.388932 0.994038
vt 0.381608 -0.000000
vt 0.375000 0.987940
vt 0.360189 -0.000000
vt 0.363850 0.056960
vt 0.383163 0.049958
vt 0.394978 0.988080
vt 0.384518 0.975678
vt 0.390165 0.208921
vt 0.375000 0.250000
vt 0.384295 0.270574
vt 0.394951 0.256404
vt 0.387460 0.167939
vt 0.370437 0.190157
vt 0.142631 0.231943
vt 0.375000 0.506007
vt 0.375000 0.547812
vt 0.125000 0.213481
vt 0.138445 0.175793
vt 0.375000 0.562928
vt 0.125000 0.187072
vt 0.388145 0.512332
vt 0.380957 0.490348
vt 0.383586 0.691435
vt 0.125000 0.000000
vt 0.375000 0.750000
vt 0.384330 0.771576
vt 0.394457 0.755000
vt 0.125000 0.113799
vt 0.375000 0.636201
vt 0.125000 0.029771
vt 0.375000 0.720229
vn 0.997749 -0.067056 0.000000
vn 0.960767 -0.277355 -0.000000
vn 0.960767 -0.277355 -0.000000
vn 0.997749 -0.067056 0.000000
vn 0.894423 -0.447222 -0.000000
vn 0.894423 -0.447222 -0.000000
vn 0.997343 0.072853 0.000000
vn 0.997343 0.072853 0.000000
vn 0.472342 -0.881415 -0.000000
vn 0.398556 -0.917144 -0.000079
vn 0.395136 -0.918623 -0.000083
vn 0.022297 0.999594 0.017745
vn 0.637952 0.770076 0.000000
vn 0.637952 0.770076 0.000000
vn 0.022298 0.999594 -0.017717
vn 0.979220 0.202803 0.000000
vn 0.979220 0.202803 0.000000
vn 0.268086 -0.960670 0.072408
vn 0.268200 -0.960599 -0.072929
vn 0.005668 -0.999937 0.009707
vn 0.005647 -0.999935 -0.009875
vn -0.978463 -0.206203 0.009501
vn -0.896906 -0.294637 0.329770
vn -0.955982 -0.118812 0.268295
vn -0.998832 -0.044124 0.019714
vn -0.601223 -0.342642 0.721891
vn -0.624059 -0.085484 0.776687
vn -0.037981 -0.457139 0.888584
vn -0.023542 -0.067429 0.997446
vn -0.617345 0.786317 0.024329
vn -0.439942 0.874701 0.203345
vn -0.001441 0.999999 0.000545
vn -0.009472 0.999955 0.000083
vn -0.292867 0.899845 0.323277
vn -0.000763 0.999999 0.001029
vn -0.026305 0.868440 0.495097
vn -0.000115 0.999946 0.010391
vn -0.023278 0.867036 -0.497702
vn -0.287231 0.899269 -0.329870
vn -0.000763 0.999999 -0.001038
vn -0.000122 0.999950 -0.010044
vn -0.431762 0.877815 -0.207419
vn -0.001429 0.999999 -0.000544
vn -0.613139 0.789513 -0.027020
vn -0.009723 0.999953 -0.000078
vn -0.616617 -0.786892 -0.024170
vn -0.432038 -0.880060 -0.197074
vn -0.001504 -0.999999 -0.000562
vn -0.009929 -0.999951 -0.000087
vn -0.282653 -0.909690 -0.304256
vn -0.000776 -0.999999 -0.001024
vn -0.029166 -0.952844 -0.302055
vn -0.000202 -0.999981 -0.006162
vn 0.000000 0.860615 0.509256
vn -0.015691 0.281252 0.959506
vn -0.021431 0.057587 0.998110
vn 0.000000 0.053339 0.998576
vn 0.000000 0.278479 0.960442
vn -0.032935 -0.454379 -0.890199
vn -0.023755 -0.061964 -0.997796
vn -0.010898 -0.460542 -0.887571
vn -0.010898 -0.460542 -0.887571
vn -0.998724 -0.046648 -0.019372
vn -0.998730 0.046595 0.019144
vn -0.998602 0.049744 -0.017852
vn 0.000000 0.000000 1.000000
vn 0.000000 0.000000 1.000000
vn 0.000000 0.000000 1.000000
vn 0.000000 0.000000 1.000000
vn -0.000000 0.000000 -1.000000
vn -0.000000 0.000000 -1.000000
vn -0.022892 0.053377 -0.998312
vn -0.000000 0.053440 -0.998571
vn -0.000000 0.000000 -1.000000
vn -0.011275 -0.465629 0.884908
vn -0.011275 -0.465629 0.884908
vn -0.032141 -0.953483 0.299727
vn -0.000202 -0.999981 0.006242
vn -0.978463 0.206115 0.011236
vn -0.978473 0.205900 -0.013966
vn -0.012711 0.281333 -0.959526
vn 0.000000 0.278479 -0.960442
vn 0.000000 0.860615 -0.509256
vn -0.009627 -0.999954 0.000092
vn -0.620409 -0.783983 0.021515
vn -0.978446 -0.206202 -0.011140
vn -0.000776 -0.999999 0.001014
vn -0.001515 -0.999999 0.000562
vn -0.439865 -0.877113 0.192851
vn -0.287571 -0.910217 0.298008
vn -0.891030 0.288264 0.350671
vn -0.955564 0.115855 0.271064
vn -0.575560 0.333540 0.746647
vn -0.623384 0.086234 0.777146
vn -0.809150 -0.000003 0.587603
vn -0.809150 -0.000003 0.587603
vn -0.555101 0.341229 -0.758568
vn -0.628432 0.087538 -0.772923
vn -0.885740 0.283691 -0.367402
vn -0.957006 0.112612 -0.267316
vn -0.891575 -0.292664 -0.345603
vn -0.956567 -0.116328 -0.267296
vn -0.580571 -0.349625 -0.735323
vn -0.625739 -0.088130 -0.775038
vn -0.811483 0.000039 -0.584376
vn -0.811483 0.000039 -0.584376
s 1
g pCube2
usemtl initialShadingGroup
f 33/74/77 32/47/78 34/49/79 36/50/80
f 32/48/78 31/51/81 35/78/82 34/77/79
f 33/74/77 36/50/80 45/52/83 42/75/84
s 2
f 31/51/85 39/53/86 35/78/87
s 3
f 40/94/88 41/66/89 44/90/90 43/95/91
s 1
f 41/66/92 42/75/84 45/52/83 44/54/93
s 2
f 39/53/86 38/84/94 47/70/95 35/78/87
f 38/84/94 37/96/96 46/68/97 47/70/95
s 4
f 51/55/98 50/104/99 53/105/100 52/92/101
f 50/104/99 49/102/102 54/106/103 53/105/100
f 49/102/102 48/81/104 55/76/105 54/106/103
s 3
f 63/56/106 62/110/107 66/111/108 65/57/109
f 62/110/107 61/109/110 67/112/111 66/111/108
f 61/109/110 60/64/112 64/58/113 67/112/111
f 75/88/114 74/117/115 81/122/116 80/59/117
f 74/117/115 73/116/118 82/123/119 81/122/116
f 73/116/118 72/87/120 83/60/121 82/123/119
s 2
f 87/61/122 86/126/123 90/127/124 89/62/125
f 86/126/123 85/124/126 91/128/127 90/127/124
f 85/124/126 84/67/128 88/63/129 91/128/127
s 3
f 64/58/113 60/64/112 41/66/130 40/94/88
s 4
f 60/64/131 68/65/132 42/75/133 41/66/134
s 2
f 88/63/129 84/67/128 47/70/95 46/68/97
s 4
f 84/67/135 92/69/136 35/78/137 47/70/138
f 95/71/139 52/92/101 71/72/140 76/86/141
f 31/73/142 32/47/143 33/74/144 42/75/133 68/65/132 55/76/105 39/83/145
f 34/77/146 35/78/147 92/69/136 79/79/148 45/89/149 36/80/150
f 55/76/105 48/81/104 38/82/151 39/83/152
s 2
f 48/98/153 56/99/154 37/96/96 38/84/94
s 4
f 71/72/140 63/85/155 72/100/156 76/86/141
s 3
f 63/56/106 65/57/109 83/60/121 72/87/120
s 4
f 79/79/148 75/88/157 44/90/158 45/89/149
s 3
f 75/88/114 80/59/117 43/95/91 44/90/159
s 2
f 59/97/160 51/91/161 87/61/122 89/62/125
s 4
f 51/55/98 52/92/101 95/71/139 87/93/162
s 3
f 65/57/109 66/111/108 67/112/111 64/58/113 40/94/88 43/95/91 80/59/117 81/122/116 82/123/119 83/60/121
s 2
f 88/63/129 46/68/97 37/96/96 56/99/154 57/107/163 58/108/164 59/97/160 89/62/125 90/127/124 91/128/127
f 50/103/165 51/91/161 59/97/160 58/108/164
f 48/98/153 49/101/166 57/107/163 56/99/154
f 49/101/166 50/103/165 58/108/164 57/107/163
s 4
f 62/110/167 63/85/155 71/72/140 70/114/168
f 60/64/131 61/109/169 69/113/170 68/65/132
f 61/109/169 62/110/167 70/114/168 69/113/170
f 52/92/101 53/105/100 70/114/168 71/72/140
f 53/105/171 54/106/103 69/113/170 70/114/172
f 54/106/103 55/76/105 68/65/132 69/113/170
f 74/117/173 75/88/157 79/79/148 78/120/174
f 72/100/156 73/115/175 77/119/176 76/86/141
f 73/115/175 74/118/173 78/121/174 77/119/176
f 86/125/177 87/93/162 95/71/139 94/131/178
f 84/67/135 85/124/179 93/130/180 92/69/136
f 85/124/179 86/126/177 94/132/178 93/130/180
f 76/86/141 77/119/176 94/131/178 95/71/139
f 77/119/181 78/121/174 93/129/180 94/131/182
f 78/120/174 79/79/148 92/69/136 93/130/180
g default
v -0.550000 0.040000 0.100000
v 0.010000 0.040000 0.100000
v -0.550000 0.040000 0.000000
v 0.010000 0.040000 0.000000
v -0.550000 0.340000 0.070003
v -0.550000 0.310003 0.100000
v -0.550000 0.331214 0.091214
v 0.010000 0.340000 0.070003
v 0.010000 0.331214 0.091214
v 0.010000 0.310003 0.100000
v -0.550000 0.310003 0.000000
v -0.550000 0.340000 0.029997
v -0.550000 0.331214 0.008786
v 0.010000 0.310003 0.000000
v 0.010000 0.331214 0.008786
v 0.010000 0.340000 0.029997
vt 0.625000 0.750000
vt 0.375000 1.000000
vt 0.625000 1.000000
vt 0.375000 0.000000
vt 0.625000 0.524998
vt 0.375000 0.750000
vt 0.625000 0.324993
vt 0.375000 0.425007
vt 0.375000 0.324993
vt 0.625000 0.225002
vt 0.375000 0.524998
vt 0.625000 0.425007
vt 0.125000 0.225002
vt 0.125000 0.000000
vt 0.375000 0.225002
vt 0.300008 0.250000
vt 0.199992 0.250000
vt 0.699992 0.250000
vt 0.625000 0.000000
vt 0.875000 0.000000
vt 0.875000 0.225002
vt 0.800008 0.250000
vt 0.375000 0.250000
vt 0.625000 0.250000
vt 0.125000 0.250000
vt 0.375000 0.500000
vt 0.625000 0.500000
vt 0.875000 0.250000
vn 0.000000 0.000000 1.000000
vn 0.000000 0.000000 1.000000
vn 0.000000 0.030156 0.999545
vn 0.000000 0.030156 0.999545
vn 0.000000 0.989857 0.142065
vn 0.000000 0.989857 0.142065
vn 0.000000 0.989857 -0.142065
vn 0.000000 0.989857 -0.142065
vn 0.000000 0.030156 -0.999545
vn 0.000000 0.030156 -0.999545
vn 0.000000 0.000000 -1.000000
vn 0.000000 0.000000 -1.000000
vn 0.000000 -1.000000 0.000000
vn 0.000000 -1.000000 0.000000
vn 0.000000 -1.000000 0.000000
vn 0.000000 -1.000000 0.000000
vn 0.000000 0.923880 0.382683
vn 0.000000 0.923880 0.382683
vn 0.000000 0.382683 0.923880
vn 0.000000 0.382683 0.923880
vn 0.000000 0.382683 -0.923880
vn 0.000000 0.382683 -0.923880
vn 0.000000 0.923880 -0.382683
vn 0.000000 0.923880 -0.382683
vn -1.000000 0.000000 0.000000
vn -1.000000 0.000000 0.000000
vn -1.000000 0.000000 0.000000
vn -1.000000 0.000000 0.000000
vn -1.000000 0.000000 0.000000
vn -1.000000 0.000000 0.000000
vn -1.000000 0.000000 0.000000
vn -1.000000 0.000000 0.000000
vn 1.000000 0.000000 0.000000
vn 1.000000 0.000000 0.000000
vn 1.000000 0.000000 0.000000
vn 1.000000 0.000000 0.000000
vn 1.000000 0.000000 0.000000
vn 1.000000 0.000000 0.000000
vn 1.000000 0.000000 0.000000
vn 1.000000 0.000000 0.000000
s 1
g pCube3
usemtl initialShadingGroup
f 96/136/183 97/151/184 105/142/185 101/147/186
s 2
f 100/141/187 103/139/188 111/144/189 107/140/190
s 3
f 106/143/191 109/137/192 99/133/193 98/138/194
s off
f 98/138/195 99/133/196 97/135/197 96/134/198
s 2
f 100/141/187 102/155/199 104/156/200 103/139/188
s 1
f 102/155/201 101/147/186 105/142/185 104/156/202
s 3
f 106/143/191 108/158/203 110/159/204 109/137/192
s 2
f 108/158/205 107/140/190 111/144/189 110/159/206
s off
f 106/145/207 98/146/208 96/136/209 101/147/210 102/155/211 100/148/212 107/149/213 108/157/214
f 103/150/215 104/156/216 105/142/217 97/151/218 99/152/219 109/153/220 110/160/221 111/154/222
g default
v -0.550000 0.040000 0.600000
v 0.010000 0.040000 0.600000
v -0.550000 0.040000 0.500000
v 0.010000 0.040000 0.500000
v -0.550000 0.340000 0.570003
v -0.550000 0.310003 0.600000
v -0.550000 0.331214 0.591214
v 0.010000 0.340000 0.570003
v 0.010000 0.331214 0.591214
v 0.010000 0.310003 0.600000
v -0.550000 0.310003 0.500000
v -0.550000 0.340000 0.529997
v -0.550000 0.331214 0.508786
v 0.010000 0.310003 0.500000
v 0.010000 0.331214 0.508786
v 0.010000 0.340000 0.529997
vt 0.625000 0.750000
vt 0.375000 1.000000
vt 0.625000 1.000000
vt 0.375000 0.000000
vt 0.625000 0.524998
vt 0.375000 0.750000
vt 0.625000 0.324993
vt 0.375000 0.425007
vt 0.375000 0.324993
vt 0.625000 0.225002
vt 0.375000 0.524998
vt 0.625000 0.425007
vt 0.125000 0.225002
vt 0.125000 0.000000
vt 0.375000 0.225002
vt 0.300008 0.250000
vt 0.199992 0.250000
vt 0.699992 0.250000
vt 0.625000 0.000000
vt 0.875000 0.000000
vt 0.875000 0.225002
vt 0.800008 0.250000
vt 0.375000 0.250000
vt 0.625000 0.250000
vt 0.125000 0.250000
vt 0.375000 0.500000
vt 0.625000 0.500000
vt 0.875000 0.250000
vn 0.000000 0.000000 1.000000
vn 0.000000 0.000000 1.000000
vn 0.000000 0.030156 0.999545
vn 0.000000 0.030156 0.999545
vn 0.000000 0.989857 0.142065
vn 0.000000 0.989857 0.142065
vn 0.000000 0.989857 -0.142065
vn 0.000000 0.989857 -0.142065
vn 0.000000 0.030156 -0.999545
vn 0.000000 0.030156 -0.999545
vn 0.000000 0.000000 -1.000000
vn 0.000000 0.000000 -1.000000
vn 0.000000 -1.000000 0.000000
vn 0.000000 -1.000000 0.000000
vn 0.000000 -1.000000 0.000000
vn 0.000000 -1.000000 0.000000
vn 0.000000 0.923880 0.382683
vn 0.000000 0.923880 0.382683
vn 0.000000 0.382683 0.923880
vn 0.000000 0.382683 0.923880
vn 0.000000 0.382683 -0.923880
vn 0.000000 0.382683 -0.923880
vn 0.000000 0.923880 -0.382683
vn 0.000000 0.923880 -0.382683
vn -1.000000 0.000000 0.000000
vn -1.000000 0.000000 0.000000
vn -1.000000 0.000000 0.000000
vn -1.000000 0.000000 0.000000
vn -1.000000 0.000000 0.000000
vn -1.000000 0.000000 0.000000
vn -1.000000 0.000000 0.000000
vn -1.000000 0.000000 0.000000
vn 1.000000 0.000000 0.000000
vn 1.000000 0.000000 0.000000
vn 1.000000 0.000000 0.000000
vn 1.000000 0.000000 0.000000
vn 1.000000 0.000000 0.000000
vn 1.000000 0.000000 0.000000
vn 1.000000 0.000000 0.000000
vn 1.000000 0.000000 0.000000
s 1
g pCube4
usemtl initialShadingGroup
f 112/164/223 113/179/224 121/170/225 117/175/226
s 2
f 116/169/227 119/167/228 127/172/229 123/168/230
s 3
f 122/171/231 125/165/232 115/161/233 114/166/234
s off
f 114/166/235 115/161/236 113/163/237 112/162/238
s 2
f 116/169/227 118/183/239 120/184/240 119/167/228
s 1
f 118/183/241 117/175/226 121/170/225 120/184/242
s 3
f 122/171/231 124/186/243 126/187/244 125/165/232
s 2
f 124/186/245 123/168/230 127/172/229 126/187/246
s off
f 122/173/247 114/174/248 112/164/249 117/175/250 118/183/251 116/176/252 123/177/253 124/185/254
f 119/178/255 120/184/256 121/170/257 113/179/258 115/180/259 125/181/260 126/188/261 127/182/262
g default
v -0.579350 -0.000000 0.579350
v -0.020648 -0.000000 0.579350
v -0.500000 0.060000 0.500000
v -0.100000 0.060000 0.500000
v -0.500000 0.060000 0.100000
v -0.100000 0.060000 0.100000
v -0.579350 -0.000000 0.020648
v -0.020648 -0.000000 0.020648
v -0.520562 0.020000 0.079435
v -0.079435 0.020000 0.079435
v -0.079435 0.020000 0.520562
v -0.520562 0.020000 0.520562
vt 0.375000 0.000000
vt 0.625000 0.000000
vt 0.375000 0.250000
vt 0.625000 0.250000
vt 0.375000 0.500000
vt 0.625000 0.500000
vt 0.375000 0.750000
vt 0.625000 0.750000
vt 0.375000 1.000000
vt 0.625000 1.000000
vt 0.875000 0.000000
vt 0.875000 0.250000
vt 0.125000 0.000000
vt 0.125000 0.250000
vt 0.375000 0.750000
vt 0.625000 0.750000
vt 0.625000 1.000000
vt 0.375000 1.000000
vn 0.000000 0.797640 0.603133
vn 0.000000 0.797640 0.603133
vn 0.000000 0.797640 0.603133
vn 0.000000 0.797640 0.603133
vn 0.000000 1.000000 0.000000
vn 0.000000 1.000000 0.000000
vn 0.000000 1.000000 0.000000
vn 0.000000 1.000000 0.000000
vn 0.000000 0.797651 -0.603120
vn 0.000000 0.797651 -0.603120
vn 0.000000 0.797651 -0.603120
vn 0.000000 0.797651 -0.603120
vn 0.000000 -1.000000 0.000000
vn 0.000000 -1.000000 0.000000
vn 0.000000 -1.000000 0.000000
vn 0.000000 -1.000000 0.000000
vn 0.603120 0.797651 0.000000
vn 0.603120 0.797651 0.000000
vn 0.603120 0.797651 0.000000
vn 0.603120 0.797651 0.000000
vn -0.603133 0.797640 0.000000
vn -0.603133 0.797640 0.000000
vn -0.603133 0.797640 0.000000
vn -0.603133 0.797640 0.000000
vn 0.000000 -0.946713 0.322078
vn 0.000000 -0.946713 0.322078
vn 0.000000 -0.946713 0.322078
vn 0.000000 -0.946713 0.322078
vn -0.322078 -0.946713 0.000000
vn -0.322078 -0.946713 0.000000
vn -0.322078 -0.946713 0.000000
vn -0.322078 -0.946713 0.000000
vn 0.000000 -0.946713 -0.322078
vn 0.000000 -0.946713 -0.322078
vn 0.000000 -0.946713 -0.322078
vn 0.000000 -0.946713 -0.322078
vn 0.322078 -0.946713 0.000000
vn 0.322078 -0.946713 0.000000
vn 0.322078 -0.946713 0.000000
vn 0.322078 -0.946713 0.000000
s off
g pCube5
usemtl initialShadingGroup
f 128/189/263 129/190/264 131/192/265 130/191/266
f 130/191/267 131/192/268 133/194/269 132/193/270
f 132/193/271 133/194/272 135/196/273 134/195/274
f 136/203/275 137/204/276 138/205/277 139/206/278
f 129/190/279 135/199/280 133/200/281 131/192/282
f 134/201/283 128/189/284 130/191/285 132/202/286
f 134/195/287 135/196/288 137/204/289 136/203/290
f 135/196/291 129/198/292 138/205/293 137/204/294
f 129/198/295 128/197/296 139/206/297 138/205/298
f 128/197/299 134/195/300 136/203/301 139/206/302
