# This file uses centimeters as units for non-parametric coordinates.

mtllib PLATFORM_FLOATING_2x2.mtl
g default
v -0.801135 0.100000 -0.801135
v 0.801135 0.100000 -0.801135
v 0.801135 0.100000 0.801135
v -0.801135 0.100000 0.801135
v -1.000000 0.000000 1.000000
v -1.000000 0.000000 -1.000000
v 1.000000 0.000000 -1.000000
v 1.000000 0.000000 1.000000
v -1.000000 0.140006 1.000000
v -1.000000 0.140006 -1.000000
v 1.000000 0.140006 -1.000000
v 1.000000 0.140006 1.000000
v -0.982428 0.182428 0.982428
v -0.982428 0.182428 -0.982428
v 0.982428 0.182428 -0.982428
v 0.982428 0.182428 0.982428
v -0.940006 0.200000 0.940006
v -0.940006 0.200000 -0.940006
v 0.940006 0.200000 -0.940006
v 0.940006 0.200000 0.940006
v -0.851041 0.200000 0.770746
v -0.356066 0.200000 0.275772
v -0.370208 0.200000 -0.304056
v -0.865183 0.200000 -0.799031
v -0.794472 0.200000 -0.869741
v 0.230833 0.200000 0.296985
v 0.280330 0.200000 -0.360624
v 0.775305 0.200000 -0.855599
v -0.299498 0.200000 -0.374767
v 0.301543 0.200000 0.226274
v 0.796518 0.200000 0.721249
v 0.725807 0.200000 0.791960
v -0.285355 0.200000 0.346482
v -0.780330 0.200000 0.841457
v -0.851041 0.179997 0.770746
v -0.356066 0.179997 0.275772
v 0.846015 0.200000 -0.784889
v 0.351041 0.200000 -0.289914
v 0.280330 0.179997 -0.360624
v 0.775305 0.179997 -0.855599
v 0.301543 0.179997 0.226274
v 0.796518 0.179997 0.721249
v 0.725807 0.179997 0.791960
v -0.285355 0.179997 0.346482
v -0.780330 0.179997 0.841457
v 0.230833 0.179997 0.296985
v -0.703936 0.164998 0.629325
v -0.356066 0.164998 0.281455
v 0.846015 0.179997 -0.784889
v 0.351041 0.179997 -0.289914
v 0.286014 0.164998 -0.360624
v 0.633883 0.164998 -0.708494
v 0.301543 0.164998 0.231958
v 0.649413 0.164998 0.579827
v 0.584386 0.164998 0.644855
v -0.291039 0.164998 0.346482
v -0.638909 0.164998 0.694352
v 0.236516 0.164998 0.296985
v -0.688408 0.154019 0.629325
v -0.356066 0.154019 0.296983
v 0.698911 0.164998 -0.643467
v 0.351041 0.164998 -0.295597
v 0.301541 0.154019 -0.360624
v 0.633883 0.154019 -0.692967
v 0.301543 0.154019 0.247485
v 0.633886 0.154019 0.579827
v 0.584386 0.154019 0.629327
v -0.306566 0.154019 0.346482
v -0.638909 0.154019 0.678825
v 0.252044 0.154019 0.296985
v -0.667197 0.150000 0.629325
v -0.356066 0.150000 0.318194
v 0.683383 0.154019 -0.643467
v 0.351041 0.154019 -0.311125
v 0.322752 0.150000 -0.360624
v 0.633883 0.150000 -0.671756
v 0.301543 0.150000 0.268696
v 0.612675 0.150000 0.579828
v 0.584386 0.150000 0.608116
v -0.327778 0.150000 0.346482
v -0.638909 0.150000 0.657614
v 0.273255 0.150000 0.296985
v 0.662172 0.150000 -0.643467
v 0.351041 0.150000 -0.332336
v -0.299498 0.179997 -0.374767
v -0.794472 0.179997 -0.869741
v -0.653051 0.164998 -0.722636
v -0.305181 0.164998 -0.374767
v -0.370208 0.164998 -0.309740
v -0.370208 0.179997 -0.304056
v -0.653051 0.154019 -0.707109
v -0.320709 0.154019 -0.374767
v -0.865183 0.179997 -0.799031
v -0.718078 0.164998 -0.657609
v -0.370208 0.154019 -0.325267
v -0.653051 0.150000 -0.685898
v -0.341920 0.150000 -0.374767
v -0.702550 0.154019 -0.657609
v -0.370208 0.150000 -0.346478
v -0.681339 0.150000 -0.657609
vt 0.375000 0.750000
vt 0.625000 0.750000
vt 0.625000 1.000000
vt 0.375000 1.000000
vt 0.375000 1.000000
vt 0.375000 0.750000
vt 0.625000 0.750000
vt 0.625000 1.000000
vt 0.125000 0.000000
vt 0.375000 0.000000
vt 0.375000 0.175008
vt 0.125000 0.175008
vt 0.375000 0.574992
vt 0.625000 0.574992
vt 0.625000 0.000000
vt 0.875000 0.000000
vt 0.875000 0.175008
vt 0.625000 0.175008
vt 0.375000 0.250000
vt 0.125000 0.250000
vt 0.375000 0.500000
vt 0.625000 0.500000
vt 0.625000 0.250000
vt 0.875000 0.250000
vt 0.382499 0.257499
vt 0.382499 0.492501
vt 0.617501 0.492501
vt 0.617501 0.257499
vt 0.393620 0.278657
vt 0.455492 0.340529
vt 0.453724 0.413007
vt 0.391852 0.474879
vt 0.400691 0.483718
vt 0.528854 0.337877
vt 0.535041 0.420078
vt 0.596913 0.481950
vt 0.462563 0.421846
vt 0.537693 0.346716
vt 0.599565 0.284844
vt 0.590726 0.276005
vt 0.464331 0.331690
vt 0.402459 0.269818
vt 0.375000 0.125000
vt 0.625000 0.125000
vt 0.625000 0.074993
vt 0.375000 0.074993
vt 0.605752 0.473111
vt 0.543880 0.411239
vt 0.625000 0.625000
vt 0.375000 0.625000
vt 0.375000 0.675007
vt 0.625000 0.675007
vt 0.625000 0.625000
vt 0.375000 0.625000
vt 0.375000 0.675007
vt 0.625000 0.675007
vt 0.625000 0.125000
vt 0.875000 0.125000
vt 0.875000 0.074993
vt 0.625000 0.074993
vt 0.125000 0.125000
vt 0.125000 0.074993
vt 0.625000 0.625000
vt 0.375000 0.625000
vt 0.375000 0.675007
vt 0.625000 0.675007
vt 0.875000 0.125000
vt 0.875000 0.074993
vt 0.375000 0.125000
vt 0.375000 0.074993
vt 0.775324 0.000000
vt 0.224676 0.000000
vt 0.625000 0.125000
vt 0.875000 0.125000
vt 0.875000 0.074993
vt 0.625000 0.074993
vt 0.375000 0.125000
vt 0.375000 0.074993
vt 0.125000 0.125000
vt 0.125000 0.074993
vt 0.125000 0.125000
vt 0.125000 0.074993
vt 0.375000 0.750000
vt 0.625000 0.750000
vt 0.375000 0.750000
vt 0.625000 0.750000
vt 0.875000 0.000000
vt 0.775324 0.000000
vt 0.125000 0.000000
vt 0.375000 0.750000
vt 0.625000 0.750000
vt 0.875000 0.000000
vt 0.224676 0.000000
vt 0.754712 0.000000
vt 0.245288 0.000000
vt 0.875000 0.000000
vt 0.775324 0.000000
vt 0.224676 0.000000
vt 0.125000 0.000000
vt 0.125000 0.000000
vt 0.381647 0.787009
vt 0.618076 0.785720
vt 0.381647 0.787009
vt 0.618076 0.785720
vt 0.586682 0.784727
vt 0.578758 0.791908
vt 0.382924 0.969392
vt 0.381647 0.787009
vt 0.375000 0.976573
vt 0.618076 0.785720
vt 0.586682 0.784727
vt 0.578758 0.791908
vt 0.754712 0.000000
vt 0.245288 0.000000
vt 0.610002 0.925008
vt 0.389998 0.925008
vt 0.586682 0.784727
vt 0.578758 0.791908
vt 0.754712 0.000000
vt 0.245288 0.000000
vt 0.382924 0.969392
vt 0.375000 0.976573
vt 0.382924 0.969392
vt 0.375000 0.976573
vt 0.389999 0.824992
vt 0.610002 0.824992
vt 0.389999 0.824992
vt 0.610002 0.824992
vt 0.610002 0.925008
vt 0.389999 0.824992
vt 0.610002 0.824992
vt 0.389998 0.925008
vt 0.610002 0.925008
vt 0.389998 0.925008
vt 0.375000 0.074993
vt 0.625000 0.074993
vt 0.775324 0.000000
vt 0.224676 0.000000
vt 0.375000 0.125000
vt 0.625000 0.125000
vt 0.125000 0.000000
vt 0.125000 0.074993
vt 0.754712 0.000000
vt 0.245288 0.000000
vt 0.875000 0.074993
vt 0.875000 0.000000
vt 0.125000 0.125000
vt 0.875000 0.125000
vt 0.382924 0.969392
vt 0.381647 0.787009
vt 0.375000 0.750000
vt 0.375000 0.976573
vt 0.625000 0.750000
vt 0.625000 0.675007
vt 0.375000 0.675007
vt 0.578758 0.791908
vt 0.610002 0.925008
vt 0.389998 0.925008
vt 0.586682 0.784727
vt 0.618076 0.785720
vt 0.625000 0.625000
vt 0.375000 0.625000
vt 0.389999 0.824992
vt 0.610002 0.824992
vn 0.000000 -1.000000 0.000000
vn 0.000000 -1.000000 0.000000
vn 0.000000 -1.000000 0.000000
vn 0.000000 -1.000000 0.000000
vn 0.449252 -0.893405 0.000000
vn 0.449252 -0.893405 0.000000
vn 0.449252 -0.893405 0.000000
vn 0.449252 -0.893405 0.000000
vn 0.000000 -0.893405 0.449252
vn 0.000000 -0.893405 0.449252
vn 0.000000 -0.893405 0.449252
vn 0.000000 -0.893405 0.449252
vn -0.449252 -0.893405 0.000000
vn -0.449252 -0.893405 0.000000
vn -0.449252 -0.893405 0.000000
vn -0.449252 -0.893405 0.000000
vn 0.000000 -0.893405 -0.449252
vn 0.000000 -0.893405 -0.449252
vn 0.000000 -0.893405 -0.449252
vn 0.000000 -0.893405 -0.449252
vn -1.000000 0.000000 0.000000
vn -1.000000 0.000000 0.000000
vn -0.997004 0.077347 0.000000
vn -0.997004 0.077347 0.000000
vn 0.000000 0.077347 -0.997004
vn 0.000000 0.077347 -0.997004
vn 0.000000 0.000000 -1.000000
vn 0.000000 0.000000 -1.000000
vn 1.000000 0.000000 0.000000
vn 1.000000 0.000000 0.000000
vn 0.997004 0.077347 0.000000
vn 0.997004 0.077347 0.000000
vn 0.000000 0.000000 1.000000
vn 0.000000 0.000000 1.000000
vn 0.000000 0.077347 0.997004
vn 0.000000 0.077347 0.997004
vn -0.923880 0.382683 0.000000
vn -0.923880 0.382683 0.000000
vn 0.000000 0.382683 -0.923880
vn 0.000000 0.382683 -0.923880
vn 0.923880 0.382683 0.000000
vn 0.923880 0.382683 0.000000
vn 0.000000 0.382683 0.923880
vn 0.000000 0.382683 0.923880
vn -0.382684 0.923879 0.000000
vn -0.056885 0.996759 0.056885
vn -0.048134 0.997680 -0.048134
vn -0.382684 0.923879 0.000000
vn 0.000000 0.923880 -0.382683
vn 0.057625 0.996674 -0.057625
vn 0.000000 0.923880 -0.382683
vn 0.051014 0.997394 0.051014
vn 0.382684 0.923879 0.000000
vn 0.382684 0.923879 0.000000
vn 0.000000 0.923880 0.382683
vn 0.000000 0.923880 0.382683
vn 0.000000 1.000000 -0.000000
vn 0.000000 1.000000 -0.000000
vn 0.000000 1.000000 -0.000000
vn 0.000000 1.000000 -0.000000
vn 0.000000 1.000000 -0.000000
vn 0.000000 1.000000 -0.000000
vn 0.000000 1.000000 -0.000000
vn 0.000000 1.000000 -0.000000
vn 0.000000 1.000000 -0.000000
vn 0.000000 1.000000 0.000000
vn 0.000000 1.000000 0.000000
vn 0.000000 1.000000 0.000000
vn 0.000000 1.000000 -0.000000
vn 0.000000 1.000000 -0.000000
vn 0.707107 0.000000 0.707107
vn 0.707107 0.000000 0.707107
vn 0.707084 0.008024 0.707084
vn 0.704040 0.093037 0.704040
vn 0.000000 1.000000 -0.000000
vn 0.000000 1.000000 -0.000000
vn 0.707107 0.000000 0.707107
vn 0.707107 0.000000 0.707107
vn 0.704040 0.093038 0.704040
vn 0.707084 0.008024 0.707084
vn -0.707107 0.000000 0.707107
vn -0.707107 0.000000 0.707107
vn -0.704040 0.093037 0.704040
vn -0.707084 0.008024 0.707084
vn -0.707107 0.000000 -0.707107
vn -0.707107 0.000000 -0.707107
vn -0.707107 0.000000 -0.707107
vn -0.707107 0.000000 -0.707107
vn -0.707107 0.000000 0.707107
vn -0.707107 0.000000 0.707107
vn -0.703537 0.100353 0.703537
vn -0.703537 0.100353 0.703537
vn -0.707107 0.000000 -0.707107
vn -0.707107 0.000000 -0.707107
vn -0.704040 0.093037 -0.704040
vn -0.707084 0.008024 -0.707084
vn 0.707107 0.000000 -0.707107
vn 0.707107 0.000000 -0.707107
vn 0.707107 0.000000 -0.707107
vn 0.707107 0.000000 -0.707107
vn 0.707107 0.000000 -0.707107
vn 0.707107 0.000000 -0.707107
vn 0.707084 0.008024 -0.707084
vn 0.704040 0.093036 -0.704040
vn 0.660603 0.356661 0.660603
vn 0.647002 0.403455 0.647002
vn -0.707107 0.000000 0.707107
vn -0.707107 0.000000 0.707107
vn -0.707107 0.000000 0.707107
vn -0.707107 0.000000 0.707107
vn -0.707107 0.000000 -0.707107
vn -0.707107 0.000000 -0.707107
vn -0.707084 0.008024 -0.707084
vn -0.704040 0.093036 -0.704040
vn 0.707107 0.000000 -0.707107
vn 0.707107 0.000000 -0.707107
vn 0.703538 0.100354 -0.703537
vn 0.703538 0.100353 -0.703537
vn 0.707107 0.000000 0.707107
vn 0.707107 0.000000 0.707107
vn 0.703537 0.100353 0.703537
vn 0.703537 0.100352 0.703537
vn 0.683012 0.258822 0.683012
vn 0.683012 0.258822 0.683012
vn -0.683012 0.258821 0.683012
vn -0.683012 0.258821 0.683012
vn -0.051843 0.997309 -0.051843
vn -0.051843 0.997309 -0.051843
vn -0.051843 0.997309 -0.051843
vn -0.051843 0.997309 -0.051843
vn -0.683013 0.258821 0.683012
vn -0.683013 0.258821 0.683012
vn -0.683013 0.258819 -0.683013
vn -0.683013 0.258819 -0.683013
vn 0.051843 0.997309 -0.051843
vn 0.051843 0.997309 -0.051843
vn 0.051843 0.997309 -0.051843
vn 0.051843 0.997309 -0.051843
vn 0.660603 0.356660 -0.660603
vn 0.647003 0.403455 -0.647003
vn 0.500000 0.707107 0.500000
vn 0.500000 0.707107 0.500000
vn -0.051843 0.997309 0.051843
vn -0.051843 0.997309 0.051843
vn -0.051843 0.997309 0.051843
vn -0.051843 0.997309 0.051843
vn -0.660604 0.356660 -0.660603
vn -0.647003 0.403454 -0.647003
vn 0.683012 0.258822 -0.683012
vn 0.683012 0.258822 -0.683012
vn 0.683012 0.258820 0.683013
vn 0.683012 0.258820 0.683013
vn 0.452571 0.830119 0.325703
vn 0.325702 0.830119 0.452571
vn 0.500001 0.707106 0.500001
vn 0.500000 0.707106 0.500001
vn -0.325703 0.830118 0.452572
vn -0.452572 0.830118 0.325703
vn -0.500001 0.707105 0.500001
vn -0.500001 0.707105 0.500001
vn -0.500001 0.707106 -0.500000
vn -0.500001 0.707106 -0.500000
vn -0.054457 0.952672 -0.299082
vn -0.054457 0.952672 0.299082
vn -0.452571 0.830119 -0.325703
vn -0.500001 0.707106 0.500000
vn -0.500001 0.707106 0.500000
vn -0.325702 0.830119 -0.452571
vn -0.500000 0.707106 -0.500001
vn -0.500000 0.707106 -0.500001
vn 0.500000 0.707106 -0.500001
vn 0.500000 0.707106 -0.500001
vn 0.299082 0.952672 -0.054457
vn 0.500000 0.707107 -0.500000
vn 0.500000 0.707107 -0.500000
vn 0.074102 0.995556 0.058118
vn 0.058118 0.995556 0.074102
vn -0.500001 0.707106 0.500001
vn -0.500001 0.707106 0.500001
vn -0.299082 0.952672 0.054457
vn -0.499999 0.707108 -0.499999
vn -0.499999 0.707108 -0.499999
vn 0.054458 0.952672 -0.299082
vn 0.500001 0.707106 -0.500000
vn 0.500001 0.707106 -0.500000
vn 0.299082 0.952672 0.054458
vn 0.500000 0.707106 0.500001
vn 0.500000 0.707106 0.500001
vn 0.074102 0.995556 0.058118
vn 0.058118 0.995556 0.074102
vn -0.058118 0.995556 0.074102
vn -0.074102 0.995556 0.058118
vn 0.058118 0.995556 -0.074102
vn -0.074102 0.995556 -0.058118
vn -0.058118 0.995556 -0.074102
vn 0.074102 0.995556 -0.058118
vn -0.074102 0.995556 -0.058118
vn -0.058118 0.995556 -0.074102
vn -0.704040 0.093036 0.704040
vn -0.707084 0.008024 0.707084
vn -0.660603 0.356660 0.660603
vn -0.647003 0.403454 0.647003
vn -0.707107 0.000000 0.707107
vn -0.707107 0.000000 0.707107
vn -0.683012 0.258819 -0.683013
vn -0.683012 0.258819 -0.683013
vn -0.703537 0.100352 -0.703537
vn -0.703537 0.100352 -0.703537
vn -0.500000 0.707107 0.500000
vn -0.500000 0.707107 0.500000
vn 0.051843 0.997309 0.051843
vn 0.051843 0.997309 0.051843
vn 0.051843 0.997309 0.051843
vn 0.051843 0.997309 0.051843
vn -0.707107 0.000000 -0.707107
vn -0.707107 0.000000 -0.707107
vn 0.707107 0.000000 0.707107
vn 0.707107 0.000000 0.707107
vn 0.707107 0.000000 0.707107
vn 0.707107 0.000000 0.707107
vn -0.299083 0.952672 -0.054458
vn 0.325703 0.830118 -0.452572
vn -0.499999 0.707106 -0.500001
vn -0.499999 0.707106 -0.500001
vn 0.683012 0.258821 -0.683012
vn 0.683012 0.258821 -0.683012
vn 0.707084 0.008024 -0.707084
vn 0.704040 0.093037 -0.704040
vn 0.054457 0.952672 0.299083
vn -0.058118 0.995556 0.074102
vn -0.074102 0.995556 0.058118
vn 0.500001 0.707106 0.500000
vn 0.500001 0.707106 0.500000
vn 0.452572 0.830119 -0.325703
vn 0.707107 0.000000 -0.707107
vn 0.707107 0.000000 -0.707107
vn 0.058118 0.995556 -0.074102
vn 0.500001 0.707105 -0.500001
vn 0.500001 0.707105 -0.500001
vn 0.074102 0.995556 -0.058118
s off
g pCube9
usemtl initialShadingGroup
f 1/1/1 2/2/2 3/3/3 4/4/4
f 5/5/5 6/6/6 1/1/7 4/4/8
f 6/6/9 7/7/10 2/2/11 1/1/12
f 7/7/13 8/8/14 3/3/15 2/2/16
f 8/8/17 5/5/18 4/4/19 3/3/20
s 1
f 6/9/21 5/10/22 9/11/23 10/12/24
s 2
f 10/13/25 11/14/26 7/7/27 6/6/28
s 3
f 8/15/29 7/16/30 11/17/31 12/18/32
s 4
f 5/10/33 8/15/34 12/18/35 9/11/36
s 1
f 9/11/23 13/19/37 14/20/38 10/12/24
s 2
f 10/13/25 14/21/39 15/22/40 11/14/26
s 3
f 16/23/41 12/18/32 11/17/31 15/24/42
s 4
f 13/19/43 9/11/36 12/18/35 16/23/44
s 5
f 13/19/45 17/25/46 18/26/47 14/21/48
f 14/21/49 18/26/47 19/27/50 15/22/51
f 20/28/52 16/23/53 15/22/54 19/27/50
f 17/25/46 13/19/55 16/23/56 20/28/52
f 17/25/46 21/29/57 22/30/58 23/31/59 24/32/60 25/33/61 18/26/47
f 22/30/58 26/34/62 27/35/63 28/36/64 19/27/50 18/26/47 25/33/61 29/37/65 23/31/59
f 17/25/46 20/28/52 19/27/50 30/38/66 31/39/67 32/40/68
f 22/30/58 33/41/69 34/42/70 21/29/57 17/25/46 32/40/68 26/34/62
s 8
f 22/43/71 21/44/72 35/45/73 36/46/74
s 5
f 28/36/64 37/47/75 38/48/76 27/35/63 26/34/62 30/38/66 19/27/50
s 9
f 28/49/77 27/50/78 39/51/79 40/52/80
s 10
f 31/53/81 30/54/82 41/55/83 42/56/84
s off
f 32/57/85 31/58/86 42/59/87 43/60/88
s 11
f 33/61/89 22/43/90 36/46/91 44/62/92
s 12
f 34/63/93 33/64/94 44/65/95 45/66/96
s off
f 21/44/97 34/67/98 45/68/99 35/45/100
s 13
f 26/69/101 32/57/102 43/60/103 46/70/104
s 8
f 36/46/74 35/45/73 47/71/105 48/72/106
s off
f 37/73/107 28/74/108 40/75/109 49/76/110
s 14
f 38/77/111 37/73/112 49/76/113 50/78/114
s 15
f 27/79/115 38/77/116 50/78/117 39/80/118
s 16
f 30/81/119 26/69/120 46/70/121 41/82/122
s 9
f 51/83/123 52/84/124 40/52/80 39/51/79
s 10
f 53/85/125 54/86/126 42/56/84 41/55/83
s off
f 43/60/127 42/59/128 54/87/129 55/88/130
s 11
f 48/72/131 56/89/132 44/62/92 36/46/91
s 12
f 56/90/133 57/91/134 45/66/96 44/65/95
s off
f 35/45/135 45/68/136 57/92/137 47/71/138
s 13
f 46/70/104 43/60/103 55/88/139 58/93/140
s 8
f 48/72/106 47/71/105 59/94/141 60/95/142
s off
f 49/76/143 40/75/144 52/96/145 61/97/146
s 14
f 50/78/114 49/76/113 61/97/147 62/98/148
s 15
f 62/98/149 51/99/150 39/80/118 50/78/117
s 16
f 58/93/151 53/100/152 41/82/122 46/70/121
s 17
f 63/101/153 64/102/154 52/84/155 51/83/156
s 18
f 65/103/157 66/104/158 54/86/159 53/85/160
f 55/105/161 54/86/162 66/104/158 67/106/163
s 20
f 60/107/164 68/108/165 56/90/166 48/109/167
f 68/108/165 69/110/168 57/91/169 56/90/170
f 47/111/171 57/91/172 69/110/168 59/112/173
s 13
f 58/93/140 55/88/139 67/113/174 70/114/175
s 20
f 60/107/164 59/112/173 71/115/176 72/116/177
s 17
f 61/117/178 52/84/179 64/102/154 73/118/180
s 14
f 62/98/148 61/97/147 73/119/181 74/120/182
s 17
f 74/121/183 63/101/153 51/83/184 62/122/185
s 18
f 70/123/186 65/103/157 53/85/187 58/124/188
s 17
f 75/125/189 76/126/190 64/102/154 63/101/153
s 18
f 77/127/191 78/128/192 66/104/158 65/103/157
f 67/106/163 66/104/158 78/128/192 79/129/193
s 20
f 72/116/177 80/130/194 68/108/165 60/107/164
f 80/130/194 81/131/195 69/110/168 68/108/165
f 59/112/173 69/110/168 81/131/195 71/115/176
s 18
f 70/123/186 67/106/163 79/129/193 82/132/196
s 20
f 80/130/194 72/116/177 71/115/176 81/131/195
s 17
f 73/118/180 64/102/154 76/126/190 83/133/197
f 74/121/183 73/118/180 83/133/197 84/134/198
f 84/134/198 75/125/189 63/101/153 74/121/183
s 18
f 82/132/196 77/127/191 65/103/157 70/123/186
s 17
f 75/125/189 84/134/198 83/133/197 76/126/190
s 18
f 77/127/191 82/132/196 79/129/193 78/128/192
s 26
f 85/135/199 86/136/200 87/137/201 88/138/202
f 29/139/203 25/140/204 86/136/200 85/135/199
s 27
f 88/138/205 89/141/206 90/142/207 85/135/208
s 26
f 88/138/202 87/137/201 91/143/209 92/144/210
s off
f 86/136/211 93/145/212 94/146/213 87/137/214
s 27
f 23/147/215 29/139/216 85/135/208 90/142/207
s off
f 25/140/217 24/148/218 93/145/219 86/136/220
s 28
f 92/149/221 95/150/222 89/151/223 88/152/224
s 29
f 89/151/225 94/153/226 93/154/227 90/155/228
s 28
f 92/149/221 91/156/229 96/157/230 97/158/231
f 87/159/232 94/153/233 98/160/234 91/156/229
s 29
f 24/161/235 23/162/236 90/155/228 93/154/227
s 28
f 97/158/231 99/163/237 95/150/222 92/149/221
f 95/150/222 98/160/234 94/153/238 89/151/239
f 99/163/237 97/158/231 96/157/230 100/164/240
f 91/156/229 98/160/234 100/164/240 96/157/230
f 99/163/237 100/164/240 98/160/234 95/150/222
